<svg width="239" height="239" viewBox="0 0 239 239" fill="none" xmlns="http://www.w3.org/2000/svg">
<rect width="239" height="239" rx="30" fill="#3D8D7A"/>
<path d="M113.738 96.5655C110.488 93.8149 136.003 94.3225 133.529 96.5655C131.055 98.8086 133.529 183.376 133.529 239H113.738C116.251 238.417 116.988 99.3161 113.738 96.5655Z" fill="#493F2A"/>
<path d="M92.6771 134.783C91.0587 136.92 99.9627 118.187 99.5127 120.216C99.0627 122.245 115.166 128.263 125.196 133.419L118.36 147.987C119.123 146.082 94.2956 132.646 92.6771 134.783Z" fill="#493F2A"/>
<path d="M147.137 118.303C146.208 116.008 156.891 131.425 155.486 130.213C154.082 129.001 141.527 140.935 132.582 147.805L124.233 135.896C125.387 137.336 148.066 120.599 147.137 118.303Z" fill="#493F2A"/>
<path d="M147.228 66.9432C146.264 90.1543 132.766 107.31 123.606 107.31C112.519 107.31 99.9847 89.6496 99.0205 66.4386C98.0782 43.7536 118.304 18.5029 123.124 19.0074C127.945 19.0075 147.228 42.7231 147.228 66.9432Z" fill="#B3D8A8"/>
<path d="M81.337 90.452C100.328 102.478 108.229 123.107 103.832 131.518C98.5105 141.699 77.6925 144.732 57.7756 134.476C38.31 124.453 26.8539 93.7616 29.5907 89.5772C31.9046 85.1505 61.0371 78.8269 81.337 90.452Z" fill="#B3D8A8"/>
<path d="M193.985 119.555C177.319 131.862 151.371 136.256 145.532 128.436C138.464 118.97 142.687 98.2791 158.124 84.3253C173.21 70.6878 204.437 76.6347 206.754 78.4286C209.071 80.2226 210.734 105.853 193.985 119.555Z" fill="#B3D8A8"/>
</svg>
